<svg width="45" height="60" viewBox="0 0 45 60" fill="none" xmlns="http://www.w3.org/2000/svg">
<path d="M31.4252 12.3118C30.1951 12.3105 29.0157 11.7669 28.1459 10.8005C27.2761 9.83411 26.787 8.52376 26.7858 7.15706V0H6.05464C4.44885 0 2.90883 0.708767 1.77336 1.97034C0.637899 3.23192 0 4.94295 0 6.72709V47.2797C0.00238459 49.0621 0.641336 50.7706 1.77654 52.0301C2.91175 53.2895 4.45041 53.9969 6.05464 53.9969H30.9392C31.7345 53.9972 32.5221 53.8235 33.2569 53.4855C33.9917 53.1476 34.6595 52.6521 35.2219 52.0274C35.7844 51.4027 36.2306 50.661 36.535 49.8447C36.8394 49.0284 36.9961 48.1534 36.9961 47.2698V12.3018L31.4252 12.3118Z" fill="#B3E6CC"/>
<path d="M36.9957 12.3118H31.4248C30.1947 12.3105 29.0154 11.7669 28.1456 10.8005C27.2758 9.83411 26.7866 8.52376 26.7854 7.15706V0L36.9957 12.3118Z" fill="#02A460"/>
<path d="M41.3856 42.65H13.2521C11.2565 42.65 9.63867 44.4475 9.63867 46.6648V55.9842C9.63867 58.2015 11.2565 59.999 13.2521 59.999H41.3856C43.3813 59.999 44.999 58.2015 44.999 55.9842V46.6648C44.999 44.4475 43.3813 42.65 41.3856 42.65Z" fill="#02A460"/>
<path d="M18.1098 53.277V55.0894H16.4246V53.277H18.1098Z" fill="white"/>
<path d="M24.165 48.2823C24.7344 48.7943 25.1212 49.5148 25.2563 50.3147H23.5328C23.4178 49.9827 23.2146 49.6976 22.95 49.4972C22.6718 49.2945 22.3445 49.1907 22.0118 49.1998C21.7925 49.1924 21.5746 49.241 21.3748 49.342C21.1751 49.443 20.9989 49.5936 20.8598 49.7822C20.5507 50.2263 20.395 50.7789 20.4211 51.3396C20.3948 51.8981 20.5506 52.4483 20.8598 52.8895C20.9995 53.0771 21.1759 53.2266 21.3756 53.3267C21.5752 53.4268 21.7929 53.4747 22.0118 53.467C22.3445 53.476 22.6718 53.3722 22.95 53.1695C23.2144 52.9732 23.4192 52.6926 23.5373 52.3645H25.2608C25.1229 53.1619 24.7365 53.8798 24.1695 54.392C23.5612 54.9116 22.8078 55.177 22.0411 55.1419C21.4372 55.1566 20.841 54.9899 20.3153 54.6594C19.8228 54.343 19.4241 53.8739 19.1679 53.3095C18.8905 52.6966 18.7516 52.018 18.7629 51.3321C18.7513 50.6454 18.8903 49.9659 19.1679 49.3522C19.4241 48.7878 19.8228 48.3187 20.3153 48.0023C20.841 47.6718 21.4372 47.5051 22.0411 47.5199C22.8075 47.4906 23.5589 47.7603 24.165 48.2823Z" fill="white"/>
<path d="M30.7417 54.072C30.5478 54.4158 30.27 54.6915 29.9407 54.8669C29.5399 55.0754 29.1006 55.1764 28.6582 55.1619C27.992 55.1919 27.3355 54.9766 26.7908 54.5494C26.5502 54.3485 26.3533 54.0901 26.2147 53.7933C26.076 53.4964 25.9992 53.1688 25.9898 52.8346H27.7245C27.7365 53.0864 27.8338 53.3239 27.9968 53.4995C28.1579 53.6672 28.3723 53.7571 28.593 53.7495C28.7739 53.7597 28.9513 53.6916 29.088 53.5595C29.1473 53.4944 29.1938 53.4163 29.2248 53.3303C29.2558 53.2443 29.2705 53.1521 29.268 53.0595C29.2701 52.972 29.2564 52.8849 29.2278 52.8034C29.1993 52.7218 29.1563 52.6475 29.1015 52.5846C28.9833 52.4512 28.8426 52.345 28.6875 52.2721C28.521 52.1896 28.2938 52.0921 28.0013 51.9796C27.6442 51.8491 27.2954 51.6921 26.9573 51.5096C26.6794 51.35 26.4408 51.1175 26.262 50.8322C26.0565 50.4861 25.9549 50.0765 25.9718 49.6622C25.9626 49.2515 26.0688 48.8479 26.2755 48.5073C26.4881 48.1746 26.7805 47.9148 27.1193 47.7573C27.5113 47.5811 27.9317 47.496 28.3545 47.5074C28.9937 47.4698 29.6249 47.6791 30.141 48.0998C30.3613 48.2982 30.5416 48.5458 30.6703 48.8266C30.7989 49.1074 30.8731 49.4151 30.888 49.7297H29.1262C29.1046 49.5098 29.0193 49.3037 28.8832 49.1423C28.8129 49.0682 28.7298 49.0108 28.6389 48.9734C28.548 48.936 28.4513 48.9195 28.3545 48.9248C28.1863 48.9152 28.021 48.9758 27.891 49.0947C27.8302 49.1584 27.7829 49.2363 27.7525 49.3227C27.7221 49.4092 27.7095 49.5021 27.7155 49.5947C27.7136 49.6776 27.7265 49.7601 27.7536 49.8373C27.7806 49.9146 27.8212 49.985 27.873 50.0447C27.9845 50.1752 28.1194 50.2782 28.269 50.3472C28.4265 50.4247 28.656 50.5247 28.944 50.6447C29.3077 50.7747 29.6619 50.9351 30.0037 51.1246C30.284 51.2921 30.5252 51.5301 30.708 51.8196C30.9166 52.17 31.0198 52.5849 31.0027 53.0045C31.0044 53.3801 30.9141 53.749 30.7417 54.072Z" fill="white"/>
<path d="M33.1737 47.6049L34.8229 53.237L36.4721 47.6049H38.2158L35.8713 55.0895H33.7654L31.4299 47.6049H33.1737Z" fill="white"/>
<path d="M26.7499 37.6977H10.2464C8.81772 37.6977 7.65674 36.1178 7.65674 34.1729V20.8762C7.65674 18.9338 8.81772 17.3539 10.2464 17.3539H26.7499C28.1786 17.3539 29.3396 18.9338 29.3396 20.8762V34.1729C29.3396 36.1178 28.1786 37.6977 26.7499 37.6977ZM10.2464 19.1538C9.54895 19.1538 8.97972 19.9263 8.97972 20.8762V34.1729C8.97972 35.1229 9.54895 35.8953 10.2464 35.8953H26.7499C27.4474 35.8953 28.0144 35.1229 28.0144 34.1729V20.8762C28.0144 19.9263 27.4474 19.1538 26.7499 19.1538H10.2464Z" fill="#02A460"/>
<path d="M28.678 29.6907H8.31812V31.4931H28.678V29.6907Z" fill="#02A460"/>
<path d="M28.678 23.5111H8.31812V25.3135H28.678V23.5111Z" fill="#02A460"/>
<path d="M23.465 18.2539H21.8428V36.7953H23.465V18.2539Z" fill="#02A460"/>
<path d="M15.154 18.2539H13.5317V36.7953H15.154V18.2539Z" fill="#02A460"/>
</svg>
